<?xml version="1.0" encoding="utf-8"?>
<!-- Generator: Adobe Illustrator 22.1.0, SVG Export Plug-In . SVG Version: 6.00 Build 0)  -->
<svg version="1.1" id="Camada_1" xmlns="http://www.w3.org/2000/svg" xmlns:xlink="http://www.w3.org/1999/xlink" x="0px" y="0px"
	 viewBox="0 0 709.5 168" style="enable-background:new 0 0 709.5 168;" xml:space="preserve">
<style type="text/css">
	.st0{fill:#2D7DD2;}
	.st1{fill:#F64B04;}
	.st2{fill:#0896C9;}
	.st3{fill:url(#SVGID_1_);}
</style>
<g>
	<polygon class="st0" points="38,104.2 49.1,104.2 49.1,74.4 88.3,74.4 88.3,64.4 49.1,64.4 49.1,47.2 105.6,47.2 105.6,37.2 
		38,37.2 	"/>
	<rect x="116.3" y="37.2" class="st0" width="11.1" height="67"/>
	<polygon class="st0" points="207.3,92.2 156.1,37.2 142.3,37.2 142.3,104.2 153.4,104.2 153.4,49.3 204.6,104.2 218.4,104.2 
		218.4,37.2 207.3,37.2 	"/>
	<path class="st0" d="M303.4,46.5c-6.9-6.2-16.1-9.3-27.7-9.3h-42.4v67h44.5c9.9,0,18.3-3,25-8.9c7.2-6.3,10.8-14.3,10.8-23.9
		C313.6,61,310.2,52.7,303.4,46.5z M295.2,87.8c-4.3,4.3-9.7,6.4-16.4,6.4h-34.3v-47h32.1c7.4,0,13.5,2.2,18.1,6.6
		c4.6,4.4,6.9,10.2,6.9,17.3C301.6,77.9,299.4,83.4,295.2,87.8z"/>
	<polygon class="st0" points="405.3,49.4 405.3,104.2 416.5,104.2 416.5,37.2 402.6,37.2 370.4,77.7 338.2,37.2 324.4,37.2 
		324.4,104.2 335.5,104.2 335.5,49.4 335.7,49.4 370.3,93.1 405.1,49.4 	"/>
	<path class="st0" d="M586.5,72c3.3-3.5,4.9-8,4.9-13.7c0-6.5-2-11.6-6-15.4c-4.1-3.8-9.6-5.8-16.6-5.8H516v67h11.1V78.6h33.8
		l18.1,25.5H592L574,78C579.4,77.3,583.5,75.2,586.5,72z M527.1,68.6V47.2h39.1c9.2,0,13.9,3.7,13.9,11.1c0,6.9-4.3,10.4-12.9,10.4
		H527.1z"/>
	<polygon class="st0" points="613.4,94.2 613.4,74.4 652.7,74.4 652.7,64.4 613.4,64.4 613.4,47.2 669.9,47.2 669.9,37.2 
		602.4,37.2 602.4,104.2 672.5,104.2 672.5,94.2 	"/>
	<g>
		<path class="st1" d="M552.1,118.1h-11.4v20.6h12c2.7,0,4.9-0.9,6.8-2.7c1.9-1.9,2.9-4.4,2.9-7.3c0-3.2-0.9-5.8-2.8-7.7
			C557.7,119.1,555.2,118.1,552.1,118.1z M552.9,135.3H544v-13.7h8.3c1.9,0,3.5,0.6,4.6,1.9c1.2,1.3,1.8,3,1.8,5.1
			c0,2-0.6,3.6-1.6,4.9C556,134.7,554.6,135.3,552.9,135.3z"/>
		<rect x="567.2" y="118.1" class="st1" width="3.4" height="20.6"/>
		<path class="st1" d="M586.4,131.1h8.2c-1.2,3.2-3.6,4.8-7.3,4.8c-2.4,0-4.4-0.7-5.9-2.1c-1.5-1.4-2.2-3.2-2.2-5.4
			c0-2.3,0.9-4.2,2.6-5.6c1.5-1.2,3.3-1.8,5.5-1.8c2.8,0,5.1,1.1,6.9,3.3l0.1,0.1l3.1-1.8l-0.1-0.2c-2.5-3.3-5.8-5-9.8-5
			c-3.3,0-6,0.9-8.1,2.8c-2.4,2.1-3.7,4.8-3.7,8.1c0,3.3,1.2,6.1,3.6,8.2c2.1,1.8,4.8,2.8,7.9,2.8c3.5,0,6.3-1,8.4-3.1
			c2.1-2.1,3.2-4.8,3.2-8.1v-0.5h-12.3V131.1z"/>
		<rect x="603.8" y="118.1" class="st1" width="3.4" height="20.6"/>
		<polygon class="st1" points="630.6,118.1 610.3,118.1 610.3,121.6 618.8,121.6 618.8,138.7 622.1,138.7 622.1,121.6 630.6,121.6 
					"/>
		<path class="st1" d="M642,118.1h-4l-9.6,20.6h3.7l2-4.5h11.7l2,4.5h3.7l-9.5-20.5L642,118.1z M644.3,130.8h-8.4l4.2-9.1
			L644.3,130.8z"/>
		<polygon class="st1" points="658,135.3 658,118.1 654.7,118.1 654.7,138.7 671.7,138.7 671.7,135.3 		"/>
	</g>
	<path class="st2" d="M466.3,98.4c0.2,0,0.4,0,0.6,0l-2,0C465.4,98.4,465.8,98.4,466.3,98.4z"/>
	<linearGradient id="SVGID_1_" gradientUnits="userSpaceOnUse" x1="510.4051" y1="70.6707" x2="444.0767" y2="70.6707">
		<stop  offset="0" style="stop-color:#F64B04"/>
		<stop  offset="0.24" style="stop-color:#F65009"/>
		<stop  offset="0.5146" style="stop-color:#F45E16"/>
		<stop  offset="0.8052" style="stop-color:#F2742C"/>
		<stop  offset="1" style="stop-color:#F0883F"/>
	</linearGradient>
	<path class="st3" d="M505.2,69.6c0-0.1,0-0.3,0-0.4c0-0.4,0-0.7-0.1-1.1c-1.3-20.3-18.2-36.4-38.8-36.4c-10.6,0-20.3,4.3-27.3,11.2
		c-0.2,0.2,0,0.4,0.2,0.4l26.4-0.3c0.3,0,0.5,0,0.8,0c0.1,0,0.2,0,0.3,0l0.6,0c7.4,0,14.6,2.9,19.2,8.1c1.3,1.5,2.5,3.1,3.4,4.9
		c2.7,4.3,4.3,9.4,4.3,14.8c0,4-0.9,7.8-2.4,11.2c-4.2,9.6-13.7,16.3-24.8,16.5c-0.2,0-0.4,0-0.6,0c-0.5,0-1,0-1.5,0l-25.7-0.3
		c-0.2,0-0.3,0.3-0.2,0.4c7,6.9,16.7,11.2,27.3,11.2c21.4,0,38.8-17.3,39-38.7C505.2,70.5,505.2,70.1,505.2,69.6z"/>
	<g>
		<path class="st0" d="M451.8,47l-15.9,0c-0.1,0-0.2,0-0.3,0.1c-5.2,6.5-8.4,14.6-8.4,23.4c0,8.8,3.1,16.8,8.2,23.3
			c0.1,0.1,0.2,0.1,0.3,0.1l15.8,0c0.3,0,0.4-0.3,0.1-0.5c-7.8-4.8-13.1-13.3-13.1-22.9c0-9.8,5.4-18.4,13.4-23.1
			C452.2,47.4,452.1,47,451.8,47z"/>
	</g>
</g>
</svg>
