<?xml version="1.0" encoding="UTF-8" standalone="no"?>
<svg
   xmlns:dc="http://purl.org/dc/elements/1.1/"
   xmlns:cc="http://creativecommons.org/ns#"
   xmlns:rdf="http://www.w3.org/1999/02/22-rdf-syntax-ns#"
   xmlns:svg="http://www.w3.org/2000/svg"
   xmlns="http://www.w3.org/2000/svg"
   xml:space="preserve"
   enable-background="new 0 0 704.7 172"
   viewBox="0 0 704.7 172"
   y="0px"
   x="0px"
   id="Camada_1"
   version="1.1"><metadata
   id="metadata236"><rdf:RDF><cc:Work
       rdf:about=""><dc:format>image/svg+xml</dc:format><dc:type
         rdf:resource="http://purl.org/dc/dcmitype/StillImage" /><dc:title></dc:title></cc:Work></rdf:RDF></metadata><defs
   id="defs234" />

<g
   style="fill:#000000;stroke:none"
   transform="matrix(0.06046718,0,0,-0.06046718,105.95457,-235.96559)"
   id="g877"><path
     style="stroke-width:0.81378484"
     d="m 8953.201,-5127.1232 c -34.179,-40.6893 -61.8476,-78.9372 -61.8476,-88.7026 0,-16.2757 4.8827,-17.9032 63.4752,-20.3446 38.2475,-2.4414 69.985,-8.1378 77.309,-14.6481 17.9031,-14.6482 19.5307,-100.0956 2.4412,-113.9299 -13.8341,-11.393 -617.662,-9.7654 -629.055,1.6276 -3.2551,4.0689 -8.1378,43.1306 -8.9516,87.8887 -3.2552,78.9372 -3.2552,80.5647 -22.786,80.5647 h -19.5308 v -133.4607 c 0,-129.3917 -0.8138,-134.2744 -17.9033,-146.4812 -9.7654,-7.324 -25.2273,-13.0205 -33.3652,-13.0205 -10.5792,0 -14.6481,-4.8827 -12.2068,-17.9033 2.4414,-16.2757 7.3241,-18.7171 34.179,-17.9033 44.7582,1.6276 69.9855,30.9239 69.9855,81.3784 0,35.8066 0,35.8066 22.786,30.1101 27.6687,-8.1379 608.7106,-8.1379 637.1929,-0.8138 11.3928,3.2551 25.2271,15.4619 30.1098,26.8549 12.2066,26.8549 12.2066,118.8126 0.8138,145.6675 -12.2068,26.0411 -53.7095,45.5719 -96.8399,45.5719 h -34.1786 l 49.6405,57.7788 c 39.8752,46.3857 48.013,60.22 40.6889,69.1717 -17.0893,20.3446 -30.1098,12.2067 -91.957,-59.4063 z"
     id="path815" /><path
     style="stroke-width:0.81378484"
     d="m 6848.7534,-5112.4751 c 0,-22.786 2.4414,-25.2273 25.2273,-25.2273 21.9722,0 24.4136,2.4413 21.9722,22.7859 -1.6275,17.0895 -7.324,22.786 -24.4135,24.4136 -20.3446,2.4413 -22.786,0 -22.786,-21.9722 z"
     id="path817" /><path
     style="stroke-width:0.81378484"
     d="m 8085.7064,-5113.2889 c 0,-21.9722 2.4413,-24.4135 24.4135,-24.4135 21.9722,0 24.4136,2.4413 24.4136,24.4135 0,21.9722 -2.4414,24.4136 -24.4136,24.4136 -21.9722,0 -24.4135,-2.4414 -24.4135,-24.4136 z"
     id="path819" /><path
     style="stroke-width:0.81378484"
     d="m 8354.2554,-5112.4751 c 0,-22.786 2.4413,-25.2273 25.2273,-25.2273 21.9722,0 24.4135,2.4413 21.9722,22.7859 -1.6276,17.0895 -7.3241,22.786 -24.4136,24.4136 -20.3446,2.4413 -22.7859,0 -22.7859,-21.9722 z"
     id="path821" /><path
     style="stroke-width:0.81378484"
     d="m 6108.2092,-5206.0604 c 0,-20.3446 1.6276,-21.1584 44.7582,-21.1584 61.8476,0 85.4474,-22.7859 85.4474,-79.7509 0,-59.4063 -8.1379,-65.9166 -89.5163,-68.3579 -67.5442,-2.4414 -69.1718,-3.2551 -69.1718,-22.786 0,-18.717 3.2552,-20.3446 40.6893,-22.786 62.6614,-4.0689 125.3229,5.6965 142.4123,22.786 32.5514,32.5514 30.1101,145.6675 -4.0689,185.543 -17.0895,19.5308 -25.2273,21.9722 -84.6336,24.4135 l -65.9166,3.2551 z"
     id="path823" /><path
     style="stroke-width:0.81378484"
     d="m 6539.5152,-5201.1777 c -30.9238,-15.4619 -41.503,-39.0616 -20.3446,-48.0133 8.1378,-2.4413 24.4135,0.8138 36.6203,8.9517 39.8754,22.786 87.8887,11.393 104.9782,-25.2274 12.2068,-26.0411 11.393,-86.2611 -0.8138,-98.4679 -5.6965,-5.6965 -34.1789,-9.7654 -69.1717,-9.7654 -77.3095,0 -111.4885,-13.8344 -123.6953,-50.4547 -18.717,-56.9649 20.3447,-104.1644 87.075,-104.1644 21.9722,0 26.0411,3.2552 26.0411,19.5309 0,16.2757 -4.8827,19.5308 -31.7376,24.4135 -36.6203,5.6965 -44.7582,14.6481 -38.2479,40.6892 4.069,17.9032 8.9517,19.5308 87.8888,22.7859 77.3095,4.069 83.8198,5.6965 101.7231,26.0412 24.4135,28.4824 26.8549,108.2333 4.0689,150.5502 -28.4825,53.7098 -104.9782,73.2406 -164.3845,43.1305 z"
     id="path825" /><path
     style="stroke-width:0.81378484"
     d="m 6808.0642,-5206.0604 c 0,-20.3446 1.6275,-21.1584 48.8271,-21.1584 65.9165,0 81.3785,-14.6481 81.3785,-79.7509 0,-26.0411 -4.069,-51.2684 -9.7655,-56.9649 -5.6965,-5.6965 -35.8065,-9.7654 -78.1233,-9.7654 h -67.5442 l 2.4414,-21.9722 2.4414,-22.786 80.5647,0.8138 c 108.2333,1.6276 114.7436,8.1378 114.7436,109.0471 0,68.358 -1.6276,74.0545 -22.786,95.2129 -19.5308,20.3446 -29.2962,22.786 -87.0749,25.2273 l -65.1028,3.2551 z"
     id="path827" /><path
     style="stroke-width:0.81378484"
     d="m 7099.3991,-5199.5501 c -60.22,-32.5514 -71.613,-155.4329 -17.9032,-197.7497 13.0205,-9.7654 39.8754,-17.9033 73.2406,-21.1584 51.2685,-5.6965 52.896,-6.5103 50.4547,-26.8548 -3.2552,-27.6687 -31.7376,-42.3168 -82.1923,-42.3168 -35.8065,0 -39.0617,-1.6276 -36.6203,-17.9033 2.4413,-17.9033 6.5103,-18.7171 61.0339,-17.9033 50.4546,0 61.8476,3.2552 79.7509,19.5309 12.2067,11.393 22.7859,32.5514 25.2273,50.4546 l 5.6965,30.9238 h 228.6735 c 135.0883,0 241.6941,4.0689 261.225,8.9516 41.503,11.393 49.6408,10.5792 91.9576,-1.6276 30.1101,-9.7654 39.8755,-8.9516 72.4269,2.4414 29.2963,10.5792 41.503,11.393 54.5236,4.0689 9.7654,-4.8827 43.9444,-8.9516 75.682,-8.9516 84.6336,-0.8138 87.075,3.2551 90.3301,125.3228 l 3.2551,97.6542 h -25.2273 -24.4135 l -2.4414,-87.075 -2.4414,-87.8887 -40.6892,-2.4414 c -57.7787,-2.4413 -63.4752,3.2552 -69.9855,75.682 -5.6965,78.1234 -25.2273,101.7231 -86.2612,107.4196 -75.682,7.3241 -116.3712,-33.3652 -116.3712,-115.5574 0,-73.2407 16.2757,-69.1717 -264.4801,-69.1717 h -248.2044 v 48.8271 c 0,66.7303 -19.5308,113.116 -53.7098,126.9504 -34.9927,14.6481 -74.8682,13.8343 -102.5369,-1.6276 z m 91.1439,-43.9444 c 13.0206,-13.0205 16.2757,-26.8549 16.2757,-73.2406 V -5373.7 h -43.9443 c -53.7098,0 -69.9855,17.0894 -69.9855,71.613 0,61.8477 58.5925,97.6542 97.6541,58.5925 z m 716.9445,0.8138 c 16.2757,-13.0205 19.5308,-22.786 19.5308,-61.8476 0,-39.0617 -3.2551,-48.8271 -19.5308,-61.8477 -55.3374,-44.7581 -115.5575,17.9033 -90.3301,95.2129 14.6481,44.7581 54.5236,57.7787 90.3301,28.4824 z"
     id="path829" /><path
     style="stroke-width:0.81378484"
     d="m 9404.8513,-5197.1087 c -33.3652,-17.0895 -49.6409,-47.1995 -54.5236,-103.3507 -3.2552,-29.2963 -8.9517,-57.7787 -13.8344,-62.6614 -4.0689,-5.6965 -25.2273,-10.5792 -47.1995,-10.5792 -50.4555,0 -56.152,10.5792 -56.152,104.9782 0,73.2406 0,74.0544 -20.3446,74.0544 h -20.3446 v -121.2539 c 0,-139.1571 -5.6965,-161.9431 -40.6892,-168.4534 -19.5309,-4.0689 -24.4136,-9.7654 -24.4136,-26.0411 0,-18.7171 1.6276,-19.5308 33.3652,-15.4619 46.3857,6.5103 65.9166,27.6687 70.7993,78.1233 3.2551,39.8754 4.0689,41.503 25.2281,34.9927 28.4825,-7.3241 86.2612,-4.8827 105.7921,5.6965 11.3929,6.5103 21.9721,5.6965 39.0616,-3.2552 43.9444,-23.5997 113.1161,-10.5792 136.7159,26.0412 18.717,27.6686 24.4135,98.4679 12.2067,135.902 -17.0894,52.896 -91.9576,78.9372 -145.6674,51.2685 z m 88.7025,-46.3858 c 12.2068,-12.2067 16.2757,-26.8549 16.2757,-61.0338 0,-34.179 -4.0689,-48.8271 -16.2757,-61.0339 -39.0617,-39.0617 -97.6542,-3.2551 -97.6542,59.4063 0,67.5441 56.965,103.3507 97.6542,62.6614 z"
     id="path831" /><path
     style="stroke-width:0.81378484"
     d="m 5965.7969,-5204.4328 c -2.4414,-5.6965 -4.8827,-45.5719 -5.6965,-87.8888 l -2.4414,-77.3095 -203.4462,-2.4414 c -192.0531,-1.6275 -205.8875,-0.8138 -250.6456,15.4619 -40.6893,15.462 -48.8271,16.2757 -55.3374,6.5103 -13.8343,-21.9722 -7.3241,-30.11 42.3168,-48.0133 54.5236,-20.3446 75.682,-46.3856 56.1512,-69.1716 -8.1379,-9.7654 -30.1101,-12.2068 -113.1161,-12.2068 -106.6058,0.8138 -119.6264,4.0689 -137.5297,38.2478 -13.0205,24.4136 -12.2067,52.896 4.069,92.7715 12.2067,32.5514 12.2067,34.9927 -1.6276,44.7582 -21.1584,15.4619 -34.179,2.4413 -49.6409,-51.2685 -23.5997,-82.1923 4.0689,-145.6674 72.4269,-165.1982 21.9722,-5.6965 71.613,-8.1379 130.2055,-6.5103 113.9299,3.2551 138.3435,14.6481 142.4124,69.9855 l 2.4413,32.5513 190.4256,3.2551 c 170.081,2.4414 192.0532,4.069 205.0738,17.0895 12.2068,12.2068 15.4619,31.7376 17.0895,111.4885 l 3.2551,97.6542 h -21.1584 c -12.2068,0 -23.5998,-4.8827 -25.2273,-9.7654 z"
     id="path833" /><path
     style="stroke-width:0.81378484"
     d="m 5953.5901,-5495.7677 c 0,-20.3446 3.2551,-24.4135 20.3446,-24.4135 17.0895,0 20.3446,4.0689 20.3446,24.4135 0,20.3446 -3.2551,24.4136 -20.3446,24.4136 -17.0895,0 -20.3446,-4.069 -20.3446,-24.4136 z"
     id="path835" /><path
     style="stroke-width:0.81378484"
     d="m 6604.618,-5496.5815 c 0,-21.9722 2.4413,-24.4135 22.7859,-21.9722 17.0895,1.6276 22.786,7.3241 24.4136,25.2274 2.4413,19.5308 0,21.9722 -21.9722,21.9722 -22.786,0 -25.2273,-2.4414 -25.2273,-25.2274 z"
     id="path837" /><path
     style="stroke-width:0.81378484"
     d="m 5365.2237,-5574.7048 c -3.2551,-2.4414 -5.6964,-13.8344 -5.6964,-24.4136 0,-15.4619 4.0689,-18.717 24.4135,-18.717 21.9722,0 24.4135,2.4413 24.4135,24.4135 0,20.3447 -3.2551,24.4136 -18.717,24.4136 -10.5792,0 -21.9722,-2.4414 -24.4136,-5.6965 z"
     id="path839" /><path
     style="stroke-width:0.81378484"
     d="m 5430.3265,-5574.7048 c -3.2551,-2.4414 -5.6965,-13.8344 -5.6965,-24.4136 0,-15.4619 4.069,-18.717 24.4136,-18.717 21.9722,0 24.4135,2.4413 24.4135,24.4135 0,20.3447 -3.2551,24.4136 -18.717,24.4136 -10.5792,0 -21.9722,-2.4414 -24.4136,-5.6965 z"
     id="path841" /><path
     style="stroke-width:0.80552435"
     d="m -1443.9043,-5306.5854 v -173.9932 l 91.8298,3.222 c 89.4132,2.4166 93.4409,3.2221 116.8011,25.7768 31.4154,29.8044 44.3038,86.9966 39.4706,170.7711 -7.2497,117.6067 -41.8872,147.411 -173.1878,148.2166 h -74.9137 z m 155.4662,115.9955 c 33.0265,-16.916 37.0542,-31.4155 37.8597,-115.19 0,-59.6088 -3.2221,-85.3856 -12.0829,-98.2739 -13.6939,-19.3326 -57.1922,-34.6376 -98.2739,-34.6376 h -26.5823 v 128.8839 128.8839 h 41.0817 c 22.5546,0 48.3314,-4.0276 57.9977,-9.6663 z"
     id="path843" /><path
     style="stroke-width:0.80552435"
     d="m -847.81624,-5305.7799 v -173.1877 h 28.19336 c 15.30496,0 28.19335,3.2221 28.19335,7.2497 0,4.8331 9.66629,2.4165 22.55468,-4.0276 41.08174,-20.9436 91.82977,-7.2497 111.96789,32.2209 18.52706,34.6376 18.52706,136.1336 0,170.7712 -20.13812,39.4707 -70.88615,53.1646 -111.96789,32.221 l -22.55468,-12.0829 v 60.4144 59.6088 h -28.19335 -28.19336 z m 138.55019,14.4995 c 20.13812,-17.7215 20.94364,-111.1624 0.80552,-132.9116 -16.11048,-17.7215 -49.13698,-18.5271 -68.46956,-0.8055 -20.13812,17.7215 -20.94364,111.1624 -0.80552,132.9116 16.11048,17.7215 49.13698,18.5269 68.46956,0.8055 z"
     id="path845" /><path
     style="stroke-width:0.80552435"
     d="m -316.17012,-5161.5911 c 0,-27.3877 0.80553,-28.1932 26.5823,-25.7767 22.55469,2.4166 25.77678,5.6387 28.19335,28.9989 2.41658,24.9712 1.61105,25.7768 -25.77677,25.7768 -28.19335,0 -28.99888,-0.8056 -28.99888,-28.999 z"
     id="path847" /><path
     style="stroke-width:0.80552435"
     d="m -42.291799,-5305.7799 v -173.1877 h 28.193349 28.193353 l 0.805525,111.1624 v 110.3568 l 41.887267,-82.1635 c 33.026499,-66.053 45.109395,-82.969 58.803315,-82.969 12.88839,0 24.16573,16.916 56.3867,82.969 l 39.47069,82.1635 2.41658,-111.1623 2.41657,-110.3569 h 23.36021 24.16573 v 173.9932 173.1878 l -24.97125,-2.4166 c -24.16574,-2.4166 -28.19336,-7.2497 -69.2751,-99.0795 -24.16573,-53.1646 -47.52594,-99.8851 -50.74804,-103.9126 -4.02762,-4.0277 -28.998906,40.2762 -57.192259,99.0794 -49.136987,104.7182 -49.942511,105.5238 -76.524812,105.5238 h -27.387828 z"
     id="path849" /><path
     style="stroke-width:0.80552435"
     d="m 755.17742,-5192.2009 v -59.6088 l -24.97125,12.0828 c -30.60993,15.305 -74.91377,8.0553 -99.88503,-16.916 -21.74918,-21.7492 -32.221,-82.969 -24.16576,-143.3834 4.02762,-26.5823 12.08287,-47.5259 24.16576,-59.6088 24.97126,-24.9712 69.2751,-32.2209 99.88503,-16.916 13.69391,7.2497 24.97125,8.8608 24.97125,4.8332 0,-4.0276 11.27734,-7.2497 24.16573,-7.2497 h 24.16573 v 173.1877 173.1878 h -24.16573 -24.16573 z m -12.88839,-103.1072 c 8.05524,-11.2773 12.88839,-35.4431 12.88839,-62.8309 0,-53.9701 -15.30496,-80.5524 -47.52594,-80.5524 -35.44307,0 -52.35908,25.7768 -53.1646,80.5524 0,34.6375 4.02762,50.748 15.30496,63.6365 20.1381,22.5546 56.38671,21.7491 72.49719,-0.8056 z"
     id="path851" /><path
     style="stroke-width:0.80552435"
     d="m 1149.8844,-5282.4196 c 0,-182.0486 4.8331,-196.548 66.8585,-196.548 26.5823,0 29.8043,2.4165 29.8043,19.3325 0,15.3051 -4.8331,20.1382 -21.7491,22.5548 l -22.5546,2.4165 -2.4166,151.4386 -1.6111,150.6331 h -24.1657 -24.1657 z"
     id="path853" /><path
     style="stroke-width:0.80552435"
     d="m 1500.2875,-5147.8971 c -52.3591,-32.2209 -56.3868,-41.8872 -58.8033,-149.022 -2.4166,-117.6066 6.4442,-143.3834 62.8309,-172.3823 60.4143,-31.4154 128.0784,-14.4994 161.1048,41.0819 23.3602,37.054 20.9437,53.97 -5.6386,53.97 -16.1105,-0.8055 -27.3878,-8.0552 -38.6652,-26.5823 -32.221,-50.748 -92.6353,-49.137 -119.2176,2.4166 -12.0828,22.5547 -13.6939,42.6928 -12.0828,102.3016 2.4166,65.2474 5.6386,77.3303 22.5546,95.0519 31.4155,33.832 88.6077,27.3878 109.5513,-12.8885 8.8608,-17.7214 17.7216,-23.3601 35.4431,-23.3601 28.9989,0 31.4154,16.1104 8.8608,53.1646 -29.8044,48.3314 -115.9955,67.664 -165.938,36.2486 z"
     id="path855" /><path
     style="stroke-width:0.80552435"
     d="m 2301.7843,-5201.0617 c 0,-30.6099 -2.4166,-36.2486 -16.1106,-36.2486 -12.0828,0 -16.1105,-5.6387 -16.1105,-20.1381 0,-14.4995 4.0277,-20.1381 16.1105,-20.1381 15.305,0 16.1106,-5.6387 16.1106,-84.5801 0,-99.885 9.6662,-116.801 64.4419,-116.801 28.9989,0 32.2209,2.4165 32.2209,19.3325 0,15.3051 -4.8331,20.1382 -21.7491,22.5548 l -22.5547,2.4165 -2.4165,78.9414 -2.4166,78.1359 h 24.9712 c 20.1382,0 24.1657,3.2221 24.1657,20.1381 0,16.916 -4.0275,20.1381 -24.1657,20.1381 -23.3602,0 -24.1657,1.611 -24.1657,36.2486 0,34.6375 -0.8055,36.2486 -24.1657,36.2486 -23.3603,0 -24.1657,-1.6111 -24.1657,-36.2486 z"
     id="path857" /><path
     style="stroke-width:0.80552435"
     d="m -546.55013,-5240.5324 c -33.83202,-15.305 -37.85964,-24.1658 -19.33258,-41.0818 12.88839,-11.2773 18.52706,-12.8883 25.77678,-5.6386 5.63867,5.6386 24.97125,9.6663 43.49832,9.6663 26.5823,0 37.85964,-4.0277 46.72041,-17.7216 20.13814,-28.9989 16.11052,-38.6651 -16.91601,-38.6651 -80.55244,-0.8055 -123.24523,-27.3878 -123.24523,-76.5248 0,-57.9978 62.83091,-91.0243 124.05076,-65.2475 16.11048,6.4441 28.99887,8.8607 28.99887,4.0276 0,-4.0276 11.27737,-7.2497 24.16576,-7.2497 h 24.16574 v 91.0242 c 0,55.5812 -4.02762,98.274 -10.47182,110.3569 -20.94363,41.8872 -94.24638,60.4143 -147.411,37.0541 z m 106.32922,-155.4662 c -5.63867,-24.1657 -32.22097,-50.748 -49.13698,-50.748 -27.38783,0 -52.35908,16.1105 -52.35908,34.6375 0,28.1933 15.30496,37.8596 62.8309,37.8596 43.49835,0 43.49835,0 38.66516,-21.7491 z"
     id="path859" /><path
     style="stroke-width:0.80552435"
     d="m 411.21849,-5234.8937 c -9.6663,-1.6111 -28.99888,-16.1105 -42.6928,-32.221 -24.97129,-28.1934 -25.77681,-30.61 -22.55472,-95.8574 2.41658,-60.4143 4.83316,-68.4696 25.77682,-91.0242 44.30384,-46.7205 124.05075,-37.8597 157.88278,16.916 18.52706,30.6099 22.55468,118.4121 5.63867,150.633 -20.13811,39.4707 -74.10825,62.8309 -124.05075,51.5536 z m 73.30272,-60.4144 c 8.05523,-11.2773 12.88838,-35.4431 12.88838,-64.4419 0,-54.7757 -17.72154,-78.9414 -55.58118,-78.9414 -33.83203,0 -49.13699,25.7768 -49.13699,80.5524 0,57.1923 15.30496,80.5525 52.35909,80.5525 19.33258,0 31.41545,-5.6387 39.4707,-17.7216 z"
     id="path861" /><path
     style="stroke-width:0.80552435"
     d="m 932.39279,-5242.949 c -36.24861,-18.527 -56.38671,-58.8032 -56.38671,-113.5789 0,-78.9415 28.19335,-116.801 94.24635,-127.2729 25.77678,-4.0276 41.88727,-0.8055 70.08057,12.8885 20.1381,9.6663 37.0541,20.9435 37.0541,24.9712 0,13.6939 -31.4154,24.1657 -47.5259,15.305 -42.69276,-22.5547 -105.52366,1.611 -105.52366,40.2761 0,15.305 5.63868,16.1105 81.35796,16.1105 h 82.1635 l -4.8331,35.4431 c -9.6663,69.2751 -33.8321,97.4685 -91.82983,105.5237 -20.94364,3.2221 -39.4707,0 -58.80328,-9.6663 z m 66.85851,-33.832 c 11.2773,-4.8332 23.3602,-18.5271 28.1934,-32.2209 l 8.8607,-24.9713 h -56.38668 c -49.13698,0 -55.58118,1.611 -55.58118,15.305 0,14.4994 34.63754,49.1369 49.13698,49.1369 3.22211,0 15.30497,-3.2221 25.77678,-7.2497 z"
     id="path863" /><path
     style="stroke-width:0.80552435"
     d="m 1795.1094,-5242.949 c -50.748,-25.7768 -71.6917,-110.3568 -44.3039,-178.8264 7.2497,-17.7215 20.9437,-37.0541 29.8045,-43.4983 41.0817,-26.5823 105.5236,-25.7768 142.5778,2.4166 19.3326,14.4994 19.3326,16.1105 5.6386,29.8043 -11.2773,12.083 -16.916,12.8885 -29.8044,4.0277 -8.8607,-4.8332 -29.8044,-9.6663 -47.5259,-9.6663 -24.9713,0 -35.443,4.8331 -48.3315,20.9436 -30.6099,39.4707 -24.9712,43.4983 63.6365,43.4983 h 80.5524 v 28.1934 c 0,86.9967 -78.9414,140.9667 -152.2441,103.1071 z m 83.7745,-46.7204 c 35.4431,-34.6376 27.3879,-44.3038 -36.2486,-44.3038 -30.6099,0 -56.3867,1.611 -56.3867,3.222 0,16.9161 19.3326,46.7205 33.832,53.1647 28.999,11.2774 37.8597,9.6663 58.8033,-12.0829 z"
     id="path865" /><path
     style="stroke-width:0.80552435"
     d="m 2088.3203,-5242.1434 c -15.305,-8.0553 -24.9713,-8.8608 -26.5823,-4.0277 -1.6111,4.8332 -13.694,8.8608 -26.5823,8.8608 h -23.3602 v -120.8287 -120.8286 h 28.1933 28.1934 v 87.8021 c 0,97.4685 6.4441,113.579 48.3314,113.579 41.8872,0 48.3315,-16.1105 48.3315,-113.579 v -87.8021 h 24.1657 24.1657 v 91.8298 c 0,109.5513 -6.4441,130.4949 -44.3038,145.7999 -35.4431,15.3049 -50.748,15.3049 -80.5524,-0.8055 z"
     id="path867" /><path
     style="stroke-width:0.80552435"
     d="m 2537.8029,-5241.3379 c -14.4994,-6.4443 -26.5823,-8.0552 -26.5823,-4.0277 0,4.8332 -10.4719,8.0553 -24.1658,8.0553 h -24.1657 v -120.8287 -120.8286 h 24.1657 24.1658 v 86.9966 c 0,74.9138 2.4166,89.4132 14.4994,100.6906 16.916,15.3049 53.9701,18.527 62.0254,4.8331 5.6386,-8.0552 44.3038,20.9437 44.3038,33.832 0,6.4442 -45.1094,23.3602 -59.6088,23.3602 -4.8332,-0.8055 -20.9436,-5.6386 -34.6375,-12.0828 z"
     id="path869" /><path
     style="stroke-width:0.80552435"
     d="m 2708.574,-5240.5324 c -34.6375,-15.305 -53.1646,-47.526 -57.9977,-101.496 -8.0552,-84.5802 21.7491,-131.3005 90.2187,-140.9668 25.7768,-4.0276 43.4983,-1.6111 71.6917,10.4718 39.4707,17.7215 44.3038,25.7768 24.9713,41.8873 -9.6663,8.0552 -16.9161,8.0552 -33.0265,0.8055 -22.5548,-9.6663 -66.8586,-12.0829 -80.5525,-2.4166 -10.4719,6.4442 -27.3879,37.0541 -27.3879,49.1369 0,5.6388 28.999,8.8608 81.3581,8.8608 h 82.1634 l -4.8331,40.2763 c -5.6387,49.137 -24.9713,79.7469 -59.6088,93.4408 -32.2211,13.6939 -55.5812,13.6939 -86.9967,0 z m 80.5524,-49.137 c 35.4431,-34.6376 27.3879,-44.3038 -36.2485,-44.3038 -45.1094,0 -56.3868,2.4165 -56.3868,12.0828 0,18.5271 37.0542,52.3591 56.3868,52.3591 9.6662,0 25.7768,-8.8608 36.2485,-20.1381 z"
     id="path871" /><path
     style="stroke-width:0.80552435"
     d="m -1121.6946,-5338.0009 c 0,-95.8574 0.8056,-102.3016 19.3326,-120.8286 26.5824,-26.5824 69.2752,-33.0265 103.10721,-16.916 16.11041,8.8607 27.38778,10.4718 28.99886,4.8332 1.61108,-4.0277 13.69393,-8.0553 26.58228,-8.0553 h 23.36023 v 120.8286 120.8287 h -28.19337 -28.19337 v -87.8021 c 0,-97.4685 -6.44422,-113.579 -47.52594,-113.579 -41.0817,0 -49.1369,19.3326 -49.1369,115.1899 v 86.1912 h -24.1658 -24.1658 z"
     id="path873" /><path
     style="stroke-width:0.80552435"
     d="m -316.17012,-5358.139 v -120.8286 h 24.16573 24.16573 v 120.8286 120.8287 h -24.16573 -24.16573 z"
     id="path875" /></g><g
   transform="matrix(0.7468904,0,0,0.7468904,199.25939,176.48783)"
   id="svgg"><path
     style="fill:#20a5dc;fill-rule:evenodd;stroke:none"
     id="path2-6"
     d="m 201.364,-192.993 c -2.759,0.642 -7.631,2.742 -8.458,3.647 -0.075,0.082 -0.935,0.754 -1.91,1.494 -2.343,1.777 -9.155,8.572 -12.028,11.999 -1.259,1.501 -2.356,2.79 -2.438,2.865 -0.083,0.075 -1.061,1.365 -2.174,2.865 -1.112,1.501 -2.175,2.883 -2.361,3.072 -0.185,0.189 -1.051,1.337 -1.923,2.552 -0.873,1.214 -2.05,2.84 -2.617,3.613 -0.568,0.772 -1.475,2.07 -2.017,2.884 -0.543,0.814 -2.129,3.043 -3.526,4.952 -5.455,7.46 -6.79,10.433 -7.539,16.805 -0.659,5.6 0.923,12.367 3.766,16.104 0.363,0.478 0.66,0.948 0.66,1.046 0,0.339 2.874,3.201 4.396,4.378 0.841,0.651 1.823,1.431 2.182,1.734 0.359,0.303 1.451,1.198 2.427,1.987 0.975,0.79 1.834,1.504 1.91,1.588 0.075,0.083 1.302,1.002 2.728,2.042 1.426,1.039 4.404,3.214 6.619,4.833 2.215,1.618 4.093,2.942 4.174,2.942 0.229,0 3.52,2.293 3.623,2.524 0.05,0.113 0.199,0.205 0.331,0.205 0.132,0 1.354,0.675 2.716,1.5 2.254,1.368 3.274,1.783 3.274,1.334 0,-0.092 -6.069,-6.262 -13.486,-13.711 -14.223,-14.284 -14.82,-14.925 -15.745,-16.922 -0.605,-1.305 -0.713,-1.568 -1.44,-3.516 -0.583,-1.563 -0.601,-7.787 -0.025,-8.794 0.214,-0.376 0.394,-0.902 0.4,-1.171 0.022,-1.13 2.655,-5.95 4.427,-8.106 0.995,-1.211 1.019,-1.243 2.065,-2.803 0.481,-0.716 1.004,-1.453 1.162,-1.637 0.301,-0.349 3.4,-4.815 5.998,-8.642 0.825,-1.216 1.836,-2.607 2.246,-3.091 0.411,-0.484 0.748,-0.975 0.751,-1.091 0.004,-0.208 7.285,-10.303 7.621,-10.567 0.095,-0.075 0.6,-0.689 1.121,-1.363 1.466,-1.898 1.681,-2.16 2.995,-3.646 2.683,-3.036 4.283,-4.634 5.59,-5.579 0.752,-0.545 1.429,-1.066 1.504,-1.159 0.23,-0.286 2.807,-1.736 3.819,-2.15 1.498,-0.613 7.164,-0.71 8.717,-0.149 3.434,1.24 5.856,2.959 8.938,6.342 1.32,1.449 2.707,2.955 3.083,3.345 1.999,2.08 7.38,8.192 8.549,9.712 0.519,0.674 1,0.853 1,0.373 0,-0.153 -0.636,-1.166 -1.414,-2.251 -3.045,-4.25 -8.004,-10.997 -8.338,-11.343 -0.193,-0.201 -0.687,-0.811 -1.098,-1.355 -0.41,-0.545 -0.93,-1.19 -1.155,-1.433 -0.225,-0.244 -0.909,-0.985 -1.519,-1.647 -5.191,-5.629 -11.539,-8.017 -17.581,-6.611 m 7.371,49.405 c 0.01,0.45 0.969,1.442 14.269,14.767 7.587,7.6 13.932,14.124 14.1,14.498 0.169,0.374 0.538,1.11 0.821,1.635 0.284,0.526 0.702,1.569 0.929,2.32 2.245,7.399 0.571,13.066 -6.448,21.828 -0.455,0.567 -3.141,4.423 -4.04,5.798 -0.514,0.788 -1.03,1.432 -1.145,1.432 -0.115,0 -0.209,0.135 -0.209,0.299 0,0.164 -0.644,1.192 -1.432,2.284 -0.788,1.092 -1.617,2.263 -1.842,2.603 -1.284,1.939 -9.698,13.545 -10.088,13.914 -0.079,0.075 -0.691,0.812 -1.36,1.637 -0.669,0.825 -1.833,2.15 -2.588,2.945 -0.754,0.794 -1.463,1.607 -1.575,1.807 -0.419,0.749 -4.86,4.267 -6.582,5.213 -6.267,3.445 -12.474,2.073 -18.598,-4.109 -2.545,-2.569 -6.919,-7.367 -9.165,-10.053 -0.362,-0.433 -0.782,-0.924 -0.935,-1.092 -0.152,-0.167 -0.938,-1.072 -1.746,-2.01 -4.254,-4.937 0.896,3.481 5.634,9.209 0.186,0.225 0.956,1.207 1.711,2.183 0.755,0.975 1.848,2.387 2.429,3.138 2.705,3.494 6.889,6.8 9.984,7.89 0.751,0.264 1.554,0.577 1.785,0.695 1.344,0.688 6.333,0.554 9.539,-0.257 6.27,-1.585 15.926,-10.135 24.965,-22.107 0.737,-0.976 1.416,-1.835 1.51,-1.91 0.094,-0.075 1.686,-2.224 3.538,-4.775 1.852,-2.551 3.815,-5.253 4.362,-6.003 0.547,-0.75 1.201,-1.671 1.454,-2.046 1.777,-2.639 2.25,-3.275 2.434,-3.275 0.115,0 0.209,-0.174 0.209,-0.386 0,-0.213 0.092,-0.428 0.204,-0.478 0.486,-0.215 3.642,-5.292 4.383,-7.048 1.917,-4.548 2.098,-5.487 2.098,-10.914 0,-4.777 -0.145,-5.753 -1.295,-8.732 -1.599,-4.141 -4.362,-7.846 -7.736,-10.373 -0.765,-0.573 -1.563,-1.207 -1.773,-1.409 -1.419,-1.361 -11.27,-8.816 -15.254,-11.544 -1.275,-0.873 -2.36,-1.691 -2.41,-1.818 -0.05,-0.127 -0.201,-0.231 -0.336,-0.231 -0.134,0 -1.137,-0.593 -2.228,-1.318 -1.732,-1.152 -2.853,-1.865 -6.157,-3.914 -0.794,-0.493 -1.422,-0.623 -1.416,-0.293" /></g><circle
   r="9.2691603"
   cy="87.4198"
   cx="349.54987"
   id="path955"
   style="fill:#ced1d3;fill-opacity:1;stroke-width:0.56894219" /><path
   style="fill:#93d6e8;fill-opacity:1;fill-rule:evenodd;stroke:none;stroke-width:0.74689043"
   id="path3-8"
   d="m 358.05055,53.06024 c -0.44888,0.0949 -1.18233,0.23527 -1.63046,0.31295 -3.57388,0.61769 -7.6631,3.18475 -10.10542,6.3426 -0.27038,0.35028 -1.27346,1.58788 -2.22873,2.75154 -0.95527,1.16291 -2.44979,3.07793 -3.32067,4.25429 -0.87163,1.1771 -1.75594,2.36914 -1.96582,2.64922 -1.23386,1.65137 -4.14599,5.83695 -5.00865,7.20002 -0.55568,0.87835 -1.14797,1.80897 -1.31602,2.06963 -2.47444,3.83156 -2.36465,4.73828 0.26963,2.22573 0.91644,-0.87459 5.74732,-5.63677 10.73506,-10.58343 7.03422,-6.9767 9.31596,-9.12027 10.1704,-9.55646 5.44782,-2.78292 10.08153,-2.00241 16.72138,2.81802 1.74175,1.26448 4.08698,2.93229 5.21106,3.70607 2.48117,1.70889 3.67246,2.53718 6.77579,4.71138 14.97067,10.48858 19.08081,14.89151 19.07633,20.43791 -0.003,3.68068 -1.39743,6.31049 -5.18715,9.78128 -1.16292,1.06507 -2.30043,2.12266 -2.52748,2.34971 -0.52656,0.52656 -3.77702,3.41105 -6.0782,5.3948 -1.74399,1.50349 -2.12117,2.04423 -1.41759,2.03153 0.84099,-0.0149 11.73066,-8.17172 14.49116,-10.85456 1.19875,-1.16514 3.49395,-4.48805 3.49395,-5.05868 0,-0.19793 0.0769,-0.40705 0.17104,-0.46531 0.97693,-0.60424 1.0927,-6.22981 0.18448,-8.91264 -1.43627,-4.2401 -5.33877,-9.14494 -11.25862,-14.15209 -0.78423,-0.66398 -1.47213,-1.25851 -1.52813,-1.32124 -0.0561,-0.0635 -1.06508,-0.86938 -2.24217,-1.79105 -1.17635,-0.92166 -2.29594,-1.80598 -2.48715,-1.96432 -0.44814,-0.3712 -8.12467,-5.98931 -10.24958,-7.50027 -0.89627,-0.63785 -1.72232,-1.23387 -1.83435,-1.32499 -5.11098,-4.14001 -12.34461,-6.51437 -16.91409,-5.55163 m -46.12048,11.42668 c -2.72689,1.65809 -11.27207,8.19264 -13.41939,10.26153 -3.82258,3.68291 -5.38731,7.63769 -4.78009,12.08244 0.74913,5.49114 4.19752,10.17937 13.20876,17.95823 3.99213,3.44615 19.36986,14.63755 21.96903,15.98869 5.94674,3.09062 12.4417,3.18174 18.07549,0.25394 1.80822,-0.9396 4.20126,-2.76201 4.82791,-3.6762 0.23676,-0.34506 0.59078,-0.80589 0.78796,-1.02324 0.63263,-0.69983 4.22965,-5.2357 5.47023,-6.89827 0.66174,-0.88732 1.62075,-2.17122 2.13014,-2.85313 2.44457,-3.27062 6.50316,-9.37721 7.63544,-11.48643 0.61992,-1.15618 0.51836,-1.7171 -0.23601,-1.30109 -0.20838,0.11429 -4.87196,4.71662 -10.36459,10.22644 -5.49189,5.50981 -10.38103,10.29289 -10.86427,10.62899 -3.3274,2.31685 -8.25688,3.00399 -11.55216,1.61105 -0.22406,-0.0949 -0.82083,-0.34058 -1.32498,-0.54672 -1.24655,-0.50864 -2.73511,-1.45869 -5.87504,-3.75015 -1.46016,-1.06431 -3.90549,-2.80681 -5.43511,-3.87188 -3.3543,-2.33478 -6.50319,-4.51868 -7.33671,-5.08781 -0.88432,-0.60499 -8.33604,-6.15886 -8.45704,-6.30376 -0.056,-0.0673 -0.74391,-0.66548 -1.52815,-1.32947 -5.521,-4.67254 -7.32175,-7.53387 -7.31877,-11.63207 0.003,-3.89653 1.23237,-6.33811 4.86824,-9.66401 0.78722,-0.72 1.88962,-1.73204 2.45053,-2.24814 1.07702,-0.99336 5.46576,-4.84956 7.08426,-6.22458 1.31005,-1.11361 1.29885,-1.91354 -0.0156,-1.11436" /></svg>